<svg width="199" height="30" viewBox="0 0 199 30" fill="none" xmlns="http://www.w3.org/2000/svg">
<path d="M163.752 29.3167C163.924 29.7398 164.334 30 164.827 30H171.833C172.353 30 172.881 29.7116 173.198 29.254L174.292 27.6837L174.859 26.7966H188.907L189.649 29.2415C189.788 29.7054 190.17 29.9969 190.626 29.9969H197.265C197.693 29.9969 198.137 29.743 198.43 29.3198C198.713 28.8967 198.803 28.3764 198.664 27.947L190.34 1.98127C189.8 0.423459 188.352 0.467341 188.352 0.467341C187.581 0.467341 186.919 0.454803 186.309 0.454803C186.13 0.454803 185.982 0.461072 185.809 0.454803H185.594C185.11 0.448534 184.672 0.439131 184.262 0.461072V0.483013C184.262 0.483013 184.256 0.483013 184.247 0.489282V0.461072C182.758 0.517492 181.661 0.80586 180.801 1.98441L163.955 27.9501C163.65 28.3795 163.567 28.903 163.749 29.323L163.752 29.3167ZM184.382 12.0271L186.774 19.7379H179.408L184.385 12.0271H184.382Z" fill="white"/>
<path d="M172.671 0.184906H147.174C146.264 0.184906 145.398 0.918364 145.241 1.82735L144.486 6.07765C144.32 6.98663 144.93 7.72009 145.836 7.72009H153.861C154.049 7.72009 154.167 7.86741 154.133 8.05234L150.564 28.1315C150.403 29.0405 151.008 29.774 151.914 29.774H157.409C158.318 29.774 159.175 29.0405 159.341 28.1315L162.91 8.05234C162.938 7.87055 163.116 7.72009 163.298 7.72009H171.324C172.233 7.72009 173.099 6.98663 173.256 6.07765L174.017 1.82735C174.178 0.918364 173.574 0.184906 172.667 0.184906H172.671Z" fill="white"/>
<path d="M129.936 29.6144V29.6206H130.781C135.049 29.6206 139.117 26.1665 139.873 21.9036L140.366 19.1328C141.127 14.87 138.279 11.4158 134.017 11.4158H120.885C120.336 11.4158 119.975 10.9707 120.074 10.4285L120.407 8.56661C120.502 8.01809 121.023 7.57927 121.566 7.57927H139.336C140.245 7.57927 141.111 6.83954 141.269 5.93682L142.024 1.68653C142.19 0.771269 141.58 0.0378113 140.674 0.0378113H121.254C116.992 0.0378113 112.918 3.49196 112.163 7.75479L111.623 10.7701C110.868 15.0424 113.71 18.4965 117.978 18.4965H131.111C131.659 18.4965 132.02 18.9322 131.921 19.4839L131.671 20.8787C131.576 21.4272 131.055 21.866 130.513 21.866H112.252C111.343 21.866 110.477 22.5995 110.32 23.5085L109.521 27.9688C109.361 28.8778 109.965 29.6112 110.871 29.6112C111.777 29.6112 129.936 29.6112 129.936 29.6112V29.6144Z" fill="white"/>
<path d="M96.7246 0.0310974H71.2276C70.3185 0.0310974 69.4524 0.764556 69.2953 1.67354L68.5402 5.92384C68.3738 6.83283 68.984 7.56628 69.8901 7.56628H77.9155C78.1035 7.56628 78.2206 7.7136 78.1867 7.89853L74.6178 27.9777C74.4575 28.8867 75.0616 29.6202 75.9677 29.6202H81.4628C82.372 29.6202 83.2288 28.8867 83.3952 27.9777L86.9641 7.89853C86.9918 7.71674 87.1706 7.56628 87.3524 7.56628H95.3778C96.287 7.56628 97.153 6.83283 97.3102 5.92384L98.0714 1.67354C98.2317 0.764556 97.6276 0.0310974 96.7215 0.0310974H96.7246Z" fill="white"/>
<path d="M46.6504 7.78583C46.6873 7.77329 46.7274 7.76388 46.7675 7.76388H63.8076C64.3469 7.76388 64.8739 7.31879 64.9725 6.77654L65.9649 1.1941C66.0605 0.651847 65.6937 0.206757 65.1544 0.206757H40.6406C39.7314 0.206757 38.8592 0.946484 38.6989 1.8492L37.6449 7.78269H46.6504V7.78583Z" fill="white"/>
<path d="M50.046 18.0418C50.2032 17.8631 50.3203 17.6124 50.3573 17.3334L51.402 12.124C51.4637 11.6413 51.2633 11.2369 50.9428 11.1523L37.1603 11.2996L35.7334 18.1076L50.0491 18.0386L50.046 18.0418Z" fill="white"/>
<path d="M35.3726 29.8557H59.8834C60.4319 29.8557 60.9497 29.4106 61.0483 28.8684L62.0746 23.0759C62.1702 22.5337 61.8127 22.0886 61.2641 22.0886C52.5329 22.0886 43.8326 22.0165 35.1137 22.0165L34.0135 28.207C33.8532 29.116 34.4634 29.8557 35.3726 29.8557Z" fill="white"/>
<path d="M1.37874 29.6204H23.2791C27.2856 29.6204 31.1165 26.37 31.8253 22.3611L32.2907 19.7532C32.4016 19.1389 32.4787 18.5684 32.4849 18.0324C32.5003 17.3616 32.4016 16.7348 32.1304 16.0797C32.0688 15.9167 31.1381 14.1771 31.0271 14.2742C32.1705 13.2179 33.0088 11.8356 33.28 10.306C33.2923 10.2277 33.2862 10.165 33.3201 10.096L33.7423 7.72639C34.4974 3.45415 31.6558 0 27.3873 0H6.64579C5.73662 0 4.87059 0.733458 4.70416 1.64244L0.0257622 27.978C-0.134499 28.887 0.469563 29.6204 1.37566 29.6204H1.37874ZM10.4859 18.5183C10.5198 18.3365 10.6924 18.186 10.8742 18.186H22.3514C23.162 18.186 23.6951 18.8411 23.5565 19.6529L23.4116 20.471C23.2668 21.2828 22.4901 21.9379 21.6795 21.9379H10.2085C10.0205 21.9379 9.90341 21.7906 9.93731 21.6057L10.4859 18.5183ZM12.3967 7.73579C12.4306 7.56026 12.6032 7.41294 12.785 7.41294H23.5195C24.33 7.41294 24.8694 8.06804 24.7245 8.87986L24.5797 9.69795C24.4348 10.5004 23.6643 11.1555 22.8538 11.1555H12.1193C11.9313 11.1555 11.8142 11.0144 11.8481 10.8326L12.3967 7.73892V7.73579Z" fill="white"/>
<path d="M99.1819 11.6539L96.2356 28.2132C96.0753 29.1222 96.6794 29.8556 97.5855 29.8556H103.081C103.99 29.8556 104.847 29.1222 105.013 28.2132L107.953 11.6539H99.1758H99.1819Z" fill="white"/>
<path d="M102.845 0.266663C101.936 0.266663 101.07 1.00012 100.913 1.90911L99.7726 8.32217H108.547L109.687 1.90911C109.854 1.00012 109.25 0.266663 108.343 0.266663H102.848H102.845Z" fill="#D2002F" stroke="#D2002F" stroke-width="0.203901" stroke-miterlimit="10"/>
</svg>
