<svg width="300" height="66" viewBox="0 0 300 66" fill="none" xmlns="http://www.w3.org/2000/svg">
<g clip-path="url(#clip0_9_17)">
<path d="M155.087 19L150.174 42.7753H164L162.304 51H139L145.609 19H155.087Z" fill="#4CA421"/>
<path fill-rule="evenodd" clip-rule="evenodd" d="M176.263 25.8242L182.121 28.4254L181.017 18.8723H190.001L195.052 50.981H185.311L184.77 46.4262H174.262L171.782 50.981H161.635L176.263 25.8242ZM179.719 36.054C181.162 33.3482 182.29 31.0183 183.101 29.0641C183.131 30.7477 183.237 32.311 183.417 33.7541L184.048 39.4814H177.87L179.719 36.054Z" fill="#4CA421"/>
<path d="M204.681 19H219.187C220.388 19 221.429 19.0449 222.308 19.1348C223.216 19.1948 224.168 19.3745 225.165 19.6742C226.19 19.9738 227.026 20.3933 227.67 20.9326C228.344 21.4419 228.901 22.161 229.341 23.0899C229.78 24.0187 230 25.1273 230 26.4157C230 28.2734 229.473 29.8764 228.418 31.2247C227.363 32.573 225.985 33.397 224.286 33.6966C227.187 34.7453 228.637 36.9326 228.637 40.2584C228.637 43.3446 227.538 45.9213 225.341 47.9888C224.374 48.8876 223.216 49.5768 221.868 50.0562C220.549 50.5356 219.392 50.8202 218.396 50.9101C217.399 50.97 216.051 51 214.352 51H198L204.681 19ZM212.462 26.2809L211.407 31.2247H216.418C217.619 31.2247 218.586 31.0449 219.319 30.6854C220.051 30.2959 220.418 29.5318 220.418 28.3933C220.418 27.8839 220.3 27.4794 220.066 27.1798C219.861 26.8502 219.524 26.6404 219.055 26.5506C218.586 26.4307 218.205 26.3558 217.912 26.3258C217.648 26.2959 217.238 26.2809 216.681 26.2809H212.462ZM210.132 37.427L208.901 43.4045H214.264C216.081 43.4045 217.311 43.1798 217.956 42.7303C218.835 42.1011 219.275 41.2172 219.275 40.0787C219.275 39.4494 219.143 38.9401 218.879 38.5506C218.615 38.161 218.205 37.8914 217.648 37.7416C217.121 37.5918 216.667 37.5019 216.286 37.4719C215.934 37.4419 215.407 37.427 214.703 37.427C214.557 37.427 214.44 37.427 214.352 37.427H210.132Z" fill="#4CA421"/>
<path d="M267 19L265.252 26.7753H247.587L246.69 30.7753H263.08L261.426 38.191H245.036L243.997 42.8652H262.135L260.34 51H232L239.132 19H267Z" fill="#4CA421"/>
<path d="M279.73 19L274.621 42.7753H289L287.237 51H263L269.873 19H279.73Z" fill="#4CA421"/>
<path d="M48.8762 19H63.8048C65.0413 19 66.1119 19.0449 67.0167 19.1348C67.9516 19.1948 68.9318 19.3745 69.9572 19.6742C71.0127 19.9738 71.8723 20.3933 72.5358 20.9326C73.2294 21.4419 73.8024 22.161 74.2548 23.0899C74.7072 24.0187 74.9334 25.1273 74.9334 26.4157C74.9334 28.2734 74.3905 29.8764 73.3048 31.2247C72.2191 32.573 70.8016 33.397 69.0524 33.6966C72.0381 34.7453 73.531 36.9326 73.531 40.2584C73.531 43.3446 72.4 45.9213 70.1381 47.9888C69.1429 48.8876 67.9516 49.5768 66.5643 50.0562C65.2072 50.5356 64.0159 50.8202 62.9905 50.9101C61.9651 50.97 60.5778 51 58.8286 51H42L48.8762 19ZM56.8834 26.2809L55.7976 31.2247H60.9548C62.1913 31.2247 63.1865 31.0449 63.9405 30.6854C64.6945 30.2959 65.0715 29.5318 65.0715 28.3933C65.0715 27.8839 64.9508 27.4794 64.7096 27.1798C64.4984 26.8502 64.1516 26.6404 63.6691 26.5506C63.1865 26.4307 62.7945 26.3558 62.4929 26.3258C62.2215 26.2959 61.7992 26.2809 61.2262 26.2809H56.8834ZM54.4857 37.427L53.2191 43.4045H58.7381C60.608 43.4045 61.8746 43.1798 62.5381 42.7303C63.4429 42.1011 63.8953 41.2172 63.8953 40.0787C63.8953 39.4494 63.7596 38.9401 63.4881 38.5506C63.2167 38.161 62.7945 37.8914 62.2215 37.7416C61.6786 37.5918 61.2111 37.5019 60.8191 37.4719C60.4572 37.4419 59.9143 37.427 59.1905 37.427C59.0397 37.427 58.9191 37.427 58.8286 37.427H54.4857Z" fill="white"/>
<path d="M109.188 19L107.514 26.7753H90.5953L89.7358 30.7753H105.433L103.85 38.191H88.1525L87.1572 42.8652H104.529L102.81 51H75.6667L82.4977 19H109.188Z" fill="white"/>
<path d="M140 19L138.236 27.1348H129.369L124.257 51H114.395L119.507 27.1348H110.369L112.088 19H140Z" fill="white"/>
<path d="M20 33.5L-0.25 67.708L-0.249997 -0.708005L20 33.5Z" fill="#4CA421"/>
</g>
<defs>
<clipPath id="clip0_9_17">
<rect width="300" height="66" fill="white"/>
</clipPath>
</defs>
</svg>
