<?xml version="1.0" encoding="UTF-8"?>
<svg id="Layer_1" xmlns="http://www.w3.org/2000/svg" xmlns:xlink="http://www.w3.org/1999/xlink" version="1.1" viewBox="0 0 258 83">
  <!-- Generator: Adobe Illustrator 29.5.1, SVG Export Plug-In . SVG Version: 2.1.0 Build 141)  -->
  <defs>
    <style>
      .st0 {
        fill: none;
      }

      .st1 {
        fill: #272727;
      }

      .st2 {
        clip-path: url(#clippath-1);
      }

      .st3 {
        fill: #fff;
      }

      .st4 {
        fill: #16d409;
      }

      .st5 {
        clip-path: url(#clippath);
      }
    </style>
    <clipPath id="clippath">
      <rect class="st0" y="0" width="258" height="83"/>
    </clipPath>
    <clipPath id="clippath-1">
      <rect class="st0" x=".7" y="0" width="256.3" height="82.9"/>
    </clipPath>
  </defs>
  <g class="st5">
    <g>
      <g class="st2">
        <g>
          <path class="st1" d="M206.1,33.3v-8.6h-8.6s8.6,8.6,8.6,8.6Z"/>
          <path class="st1" d="M197.5,30.1v24.7h8.6v-16.1l-8.6-8.6Z"/>
          <g>
            <polygon class="st4" points="28.1 34 32.4 35.9 35.5 34.2 36.9 31.2 35.9 28.2 27.9 24.7 28.5 19.7 30.5 13.4 20.9 22.4 22.1 29 28.1 34"/>
            <polygon class="st4" points="60.1 15 62.2 23.3 60.5 25.9 52.1 28.2 57.3 35.1 61 33.4 65.4 28.8 66.2 23.4 64 19.4 60.1 15"/>
            <polygon class="st4" points="26.7 34.6 19 36.7 23.1 40.5 26.9 41.1 30.7 40.5 27 40 21.7 37.5 25.3 37.3 27.8 38.5 31.7 37.8 32.2 36.7 26.7 34.6"/>
            <polygon class="st4" points="46.3 56 41.6 52 46.7 55 47.4 51.7 50.9 48.6 59.7 48.6 56.1 41.2 51.7 38.9 45.4 42.2 46.9 49.9 43.9 42.9 40.6 44.1 37.9 39.8 35 40.6 39.8 36.5 44.8 40.9 50.5 38.2 50.4 38.2 51.3 37.8 52.1 38.2 52.1 38.2 52.7 38.6 52.7 38.6 52.7 38.6 56 40.2 57.5 36.7 50.5 27.5 36.7 27.6 37.6 31.2 36 34.8 32.8 36.7 32 40 32 50.8 37.9 56.1 46.3 56"/>
            <path class="st4" d="M62.6,51.9l-1.5-2.4h-9.7c0-.1-3.2,2.7-3.2,2.7l-.7,4.1,2.4,2.7,6.2-2h6.4v-2.7l-1.6.9v-2.2c0,0,1.6-1,1.6-1h0ZM51.7,54.3l.8-2.3h2.7l1.6,3-5.2-.7h0Z"/>
            <polygon class="st4" points="55.6 58.7 52.1 60 59.6 59.3 59.9 58.5 55.6 58.7"/>
            <polygon class="st4" points="33.3 53.5 39 66.6 47.6 78.8 49.5 71.5 49.5 61.6 45.3 71.5 33.3 53.5"/>
            <polygon class="st4" points="55.1 76.2 60.1 72.7 51.7 65.9 55.1 76.2"/>
            <polygon class="st4" points="41.3 42 43.6 41.3 40.1 38.5 39.8 40.2 41.3 42"/>
            <path class="st4" d="M41.8,0C18.9,0,.3,18.6.3,41.5s18.6,41.5,41.5,41.5,41.5-18.6,41.5-41.5S64.8,0,41.8,0ZM8.6,60.3l3.9-1.2,3.9,10.8c-3.1-2.8-5.7-6-7.8-9.7h0s0,0,0,0ZM19,63.2l15.2,15.8c-1.8-.4-3.6-.9-5.3-1.5l-9.9-14.3h0ZM47.1,79.4l-9-12.2-7.3-16.8.5-8.6h-8.2l-16.7,14.2c-1.8-4.4-2.8-9.3-2.8-14.5,0-21.1,17.1-38.2,38.2-38.2s38.2,17.1,38.2,38.2-14.3,35.3-33,37.8h0s0,0,0,0Z"/>
          </g>
        </g>
      </g>
      <path class="st4" d="M257.1,32.7h-11.5v3.6h9.3v7.2h-9.3v3.6h11.5v7.9h-20.1v-30.1h20.1v7.9Z"/>
      <path class="st4" d="M221.6,35.2c5.9.8,13.3,2.2,13.3,9.9s-3.9,10.5-13.6,10.5-12.9-4.5-12.9-4.5l3.2-6.9c4.5,3.5,9.7,3.5,9.7,3.5,2.4,0,5-.2,5-1.8s-1.6-1.6-5.5-2.2c-8.2-1.3-11.7-4.7-11.7-9.9s4.1-9.8,13-9.8c0,0,7.3,0,11.4,3.6l-3.4,6.5s-2.8-2.2-8.8-2.2-3.6.6-3.6,1.4.8,1.4,3.9,1.8Z"/>
      <path class="st4" d="M206.1,54.9h-8.6v-30.1h8.6v30.1Z"/>
      <path class="st4" d="M188.2,44.8l7.4,10.1h-10l-6.2-9.3h-1.7v9.3h-8.6v-30.1h13.6c7.8,0,11.5,4.2,11.5,10s-2.2,8.3-6,9.9ZM181.9,38.4c2,0,3.7-1,3.7-3.2s-1.7-3.2-3.7-3.2h-4.2v6.5h4.2Z"/>
      <path class="st3" d="M142.5,24.8h24.4v7.9h-7.9v22.2h-8.6v-22.2h-7.9v-7.9Z"/>
      <path class="st3" d="M140.9,32.7h-11.5v3.6h9.3v7.2h-9.3v3.6h11.5v7.9h-20.1v-30.1h20.1v7.9Z"/>
      <path class="st3" d="M113.9,38.7c3.8.9,5.1,4.1,5.1,7.1,0,5.2-3.9,9.1-10.3,9.1h-15.5v-30.1h12.9c6.9,0,11.5,2.7,11.5,7.9s-1.5,5.3-3.6,6ZM101.8,31.2v5h3.6c2.3,0,3.6-.8,3.6-2.5s-1.3-2.5-3.6-2.5h-3.6ZM106.1,48.4c2.6,0,4.3-.9,4.3-2.9s-1.7-2.9-4.3-2.9h-4.3v5.7h4.3Z"/>
    </g>
  </g>
</svg>